<mxfile host="app.diagrams.net" modified="2024-02-23T05:25:33.946Z" agent="Mozilla/5.0 (Windows NT 10.0; Win64; x64) AppleWebKit/537.36 (KHTML, like Gecko) Chrome/121.0.0.0 Safari/537.36" etag="S26tPynZLCWAzYO0TBHC" version="23.1.6" type="device">
  <diagram name="페이지-1" id="9c1DqdoFf3FLH81-kjmP">
    <mxGraphModel dx="836" dy="762" grid="1" gridSize="10" guides="1" tooltips="1" connect="1" arrows="1" fold="1" page="1" pageScale="1" pageWidth="1100" pageHeight="850" math="0" shadow="0">
      <root>
        <mxCell id="0" />
        <mxCell id="1" parent="0" />
        <mxCell id="C-pPuzgPL1uRPU92LG2Y-1" value="게시글" style="rounded=0;whiteSpace=wrap;html=1;" parent="1" vertex="1">
          <mxGeometry x="170" y="280" width="90" height="50" as="geometry" />
        </mxCell>
        <mxCell id="C-pPuzgPL1uRPU92LG2Y-3" value="제목" style="ellipse;whiteSpace=wrap;html=1;" parent="1" vertex="1">
          <mxGeometry x="50" y="370" width="120" height="50" as="geometry" />
        </mxCell>
        <mxCell id="C-pPuzgPL1uRPU92LG2Y-4" value="글내용" style="ellipse;whiteSpace=wrap;html=1;" parent="1" vertex="1">
          <mxGeometry x="180" y="370" width="120" height="50" as="geometry" />
        </mxCell>
        <mxCell id="C-pPuzgPL1uRPU92LG2Y-5" value="작성일" style="ellipse;whiteSpace=wrap;html=1;" parent="1" vertex="1">
          <mxGeometry x="240" y="200" width="120" height="50" as="geometry" />
        </mxCell>
        <mxCell id="C-pPuzgPL1uRPU92LG2Y-6" value="조회수" style="ellipse;whiteSpace=wrap;html=1;" parent="1" vertex="1">
          <mxGeometry x="120" y="170" width="120" height="50" as="geometry" />
        </mxCell>
        <mxCell id="C-pPuzgPL1uRPU92LG2Y-7" value="노출여부" style="ellipse;whiteSpace=wrap;html=1;" parent="1" vertex="1">
          <mxGeometry x="10" y="210" width="120" height="50" as="geometry" />
        </mxCell>
        <mxCell id="C-pPuzgPL1uRPU92LG2Y-8" value="글번호" style="ellipse;whiteSpace=wrap;html=1;" parent="1" vertex="1">
          <mxGeometry x="10" y="280" width="120" height="50" as="geometry" />
        </mxCell>
        <mxCell id="C-pPuzgPL1uRPU92LG2Y-10" value="" style="endArrow=none;html=1;rounded=0;exitX=0.5;exitY=1;exitDx=0;exitDy=0;" parent="1" source="C-pPuzgPL1uRPU92LG2Y-6" target="C-pPuzgPL1uRPU92LG2Y-1" edge="1">
          <mxGeometry relative="1" as="geometry">
            <mxPoint x="330" y="490" as="sourcePoint" />
            <mxPoint x="490" y="490" as="targetPoint" />
          </mxGeometry>
        </mxCell>
        <mxCell id="C-pPuzgPL1uRPU92LG2Y-11" value="" style="endArrow=none;html=1;rounded=0;exitX=1;exitY=1;exitDx=0;exitDy=0;entryX=0;entryY=0;entryDx=0;entryDy=0;" parent="1" source="C-pPuzgPL1uRPU92LG2Y-7" target="C-pPuzgPL1uRPU92LG2Y-1" edge="1">
          <mxGeometry relative="1" as="geometry">
            <mxPoint x="330" y="490" as="sourcePoint" />
            <mxPoint x="490" y="490" as="targetPoint" />
          </mxGeometry>
        </mxCell>
        <mxCell id="C-pPuzgPL1uRPU92LG2Y-12" value="" style="endArrow=none;html=1;rounded=0;exitX=1;exitY=0.5;exitDx=0;exitDy=0;entryX=0;entryY=0.5;entryDx=0;entryDy=0;" parent="1" source="C-pPuzgPL1uRPU92LG2Y-8" target="C-pPuzgPL1uRPU92LG2Y-1" edge="1">
          <mxGeometry relative="1" as="geometry">
            <mxPoint x="330" y="490" as="sourcePoint" />
            <mxPoint x="490" y="490" as="targetPoint" />
          </mxGeometry>
        </mxCell>
        <mxCell id="C-pPuzgPL1uRPU92LG2Y-14" value="" style="endArrow=none;html=1;rounded=0;exitX=0.5;exitY=0;exitDx=0;exitDy=0;entryX=0;entryY=1;entryDx=0;entryDy=0;" parent="1" source="C-pPuzgPL1uRPU92LG2Y-3" target="C-pPuzgPL1uRPU92LG2Y-1" edge="1">
          <mxGeometry relative="1" as="geometry">
            <mxPoint x="330" y="490" as="sourcePoint" />
            <mxPoint x="490" y="490" as="targetPoint" />
          </mxGeometry>
        </mxCell>
        <mxCell id="C-pPuzgPL1uRPU92LG2Y-15" value="" style="endArrow=none;html=1;rounded=0;entryX=0.5;entryY=0;entryDx=0;entryDy=0;exitX=0.75;exitY=1;exitDx=0;exitDy=0;" parent="1" source="C-pPuzgPL1uRPU92LG2Y-1" target="C-pPuzgPL1uRPU92LG2Y-4" edge="1">
          <mxGeometry relative="1" as="geometry">
            <mxPoint x="210" y="330" as="sourcePoint" />
            <mxPoint x="490" y="490" as="targetPoint" />
          </mxGeometry>
        </mxCell>
        <mxCell id="C-pPuzgPL1uRPU92LG2Y-16" value="" style="endArrow=none;html=1;rounded=0;entryX=1;entryY=0;entryDx=0;entryDy=0;" parent="1" source="C-pPuzgPL1uRPU92LG2Y-5" target="C-pPuzgPL1uRPU92LG2Y-1" edge="1">
          <mxGeometry relative="1" as="geometry">
            <mxPoint x="330" y="490" as="sourcePoint" />
            <mxPoint x="490" y="490" as="targetPoint" />
          </mxGeometry>
        </mxCell>
        <mxCell id="C-pPuzgPL1uRPU92LG2Y-18" value="글작성" style="shape=rhombus;perimeter=rhombusPerimeter;whiteSpace=wrap;html=1;align=center;" parent="1" vertex="1">
          <mxGeometry x="300" y="275" width="120" height="60" as="geometry" />
        </mxCell>
        <mxCell id="C-pPuzgPL1uRPU92LG2Y-20" value="" style="endArrow=none;html=1;rounded=0;exitX=1;exitY=0.5;exitDx=0;exitDy=0;entryX=0;entryY=0.5;entryDx=0;entryDy=0;" parent="1" source="C-pPuzgPL1uRPU92LG2Y-1" target="C-pPuzgPL1uRPU92LG2Y-18" edge="1">
          <mxGeometry relative="1" as="geometry">
            <mxPoint x="330" y="490" as="sourcePoint" />
            <mxPoint x="490" y="490" as="targetPoint" />
          </mxGeometry>
        </mxCell>
        <mxCell id="C-pPuzgPL1uRPU92LG2Y-21" value="회원" style="whiteSpace=wrap;html=1;align=center;" parent="1" vertex="1">
          <mxGeometry x="520" y="285" width="100" height="40" as="geometry" />
        </mxCell>
        <mxCell id="C-pPuzgPL1uRPU92LG2Y-23" value="이름" style="ellipse;whiteSpace=wrap;html=1;align=center;" parent="1" vertex="1">
          <mxGeometry x="420" y="390" width="100" height="40" as="geometry" />
        </mxCell>
        <mxCell id="C-pPuzgPL1uRPU92LG2Y-24" value="아이디" style="ellipse;whiteSpace=wrap;html=1;align=center;" parent="1" vertex="1">
          <mxGeometry x="500" y="420" width="100" height="40" as="geometry" />
        </mxCell>
        <mxCell id="C-pPuzgPL1uRPU92LG2Y-25" value="비밀번호" style="ellipse;whiteSpace=wrap;html=1;align=center;" parent="1" vertex="1">
          <mxGeometry x="570" y="385" width="100" height="40" as="geometry" />
        </mxCell>
        <mxCell id="C-pPuzgPL1uRPU92LG2Y-26" value="메일" style="ellipse;whiteSpace=wrap;html=1;align=center;" parent="1" vertex="1">
          <mxGeometry x="620" y="335" width="100" height="40" as="geometry" />
        </mxCell>
        <mxCell id="C-pPuzgPL1uRPU92LG2Y-28" value="전화번호" style="ellipse;whiteSpace=wrap;html=1;align=center;" parent="1" vertex="1">
          <mxGeometry x="590" y="175" width="100" height="40" as="geometry" />
        </mxCell>
        <mxCell id="C-pPuzgPL1uRPU92LG2Y-29" value="가입일" style="ellipse;whiteSpace=wrap;html=1;align=center;" parent="1" vertex="1">
          <mxGeometry x="630" y="220" width="100" height="40" as="geometry" />
        </mxCell>
        <mxCell id="C-pPuzgPL1uRPU92LG2Y-30" value="성별" style="ellipse;whiteSpace=wrap;html=1;align=center;" parent="1" vertex="1">
          <mxGeometry x="480" y="170" width="100" height="40" as="geometry" />
        </mxCell>
        <mxCell id="C-pPuzgPL1uRPU92LG2Y-31" value="활동여부" style="ellipse;whiteSpace=wrap;html=1;align=center;" parent="1" vertex="1">
          <mxGeometry x="440" y="220" width="100" height="40" as="geometry" />
        </mxCell>
        <mxCell id="C-pPuzgPL1uRPU92LG2Y-32" value="" style="endArrow=none;html=1;rounded=0;exitX=1;exitY=0.5;exitDx=0;exitDy=0;entryX=0;entryY=0.5;entryDx=0;entryDy=0;" parent="1" source="C-pPuzgPL1uRPU92LG2Y-18" target="C-pPuzgPL1uRPU92LG2Y-21" edge="1">
          <mxGeometry relative="1" as="geometry">
            <mxPoint x="330" y="440" as="sourcePoint" />
            <mxPoint x="490" y="440" as="targetPoint" />
          </mxGeometry>
        </mxCell>
        <mxCell id="C-pPuzgPL1uRPU92LG2Y-33" value="회원번호" style="ellipse;whiteSpace=wrap;html=1;align=center;fontStyle=4;" parent="1" vertex="1">
          <mxGeometry x="390" y="335" width="100" height="40" as="geometry" />
        </mxCell>
        <mxCell id="C-pPuzgPL1uRPU92LG2Y-36" value="" style="endArrow=none;html=1;rounded=0;exitX=0.5;exitY=0;exitDx=0;exitDy=0;entryX=0;entryY=1;entryDx=0;entryDy=0;" parent="1" source="C-pPuzgPL1uRPU92LG2Y-33" target="C-pPuzgPL1uRPU92LG2Y-21" edge="1">
          <mxGeometry relative="1" as="geometry">
            <mxPoint x="330" y="440" as="sourcePoint" />
            <mxPoint x="490" y="440" as="targetPoint" />
          </mxGeometry>
        </mxCell>
        <mxCell id="C-pPuzgPL1uRPU92LG2Y-37" value="" style="endArrow=none;html=1;rounded=0;exitX=0.5;exitY=0;exitDx=0;exitDy=0;entryX=0.25;entryY=1;entryDx=0;entryDy=0;" parent="1" source="C-pPuzgPL1uRPU92LG2Y-23" target="C-pPuzgPL1uRPU92LG2Y-21" edge="1">
          <mxGeometry relative="1" as="geometry">
            <mxPoint x="480" y="380" as="sourcePoint" />
            <mxPoint x="530" y="335" as="targetPoint" />
          </mxGeometry>
        </mxCell>
        <mxCell id="C-pPuzgPL1uRPU92LG2Y-38" value="" style="endArrow=none;html=1;rounded=0;exitX=0.5;exitY=0;exitDx=0;exitDy=0;entryX=0.5;entryY=1;entryDx=0;entryDy=0;" parent="1" source="C-pPuzgPL1uRPU92LG2Y-24" target="C-pPuzgPL1uRPU92LG2Y-21" edge="1">
          <mxGeometry relative="1" as="geometry">
            <mxPoint x="480" y="410" as="sourcePoint" />
            <mxPoint x="555" y="335" as="targetPoint" />
          </mxGeometry>
        </mxCell>
        <mxCell id="C-pPuzgPL1uRPU92LG2Y-39" value="" style="endArrow=none;html=1;rounded=0;exitX=0.5;exitY=0;exitDx=0;exitDy=0;entryX=0.75;entryY=1;entryDx=0;entryDy=0;" parent="1" source="C-pPuzgPL1uRPU92LG2Y-25" target="C-pPuzgPL1uRPU92LG2Y-21" edge="1">
          <mxGeometry relative="1" as="geometry">
            <mxPoint x="490" y="420" as="sourcePoint" />
            <mxPoint x="565" y="345" as="targetPoint" />
          </mxGeometry>
        </mxCell>
        <mxCell id="C-pPuzgPL1uRPU92LG2Y-40" value="" style="endArrow=none;html=1;rounded=0;exitX=0;exitY=0.5;exitDx=0;exitDy=0;entryX=1;entryY=1;entryDx=0;entryDy=0;" parent="1" source="C-pPuzgPL1uRPU92LG2Y-26" target="C-pPuzgPL1uRPU92LG2Y-21" edge="1">
          <mxGeometry relative="1" as="geometry">
            <mxPoint x="500" y="430" as="sourcePoint" />
            <mxPoint x="575" y="355" as="targetPoint" />
          </mxGeometry>
        </mxCell>
        <mxCell id="C-pPuzgPL1uRPU92LG2Y-42" value="" style="endArrow=none;html=1;rounded=0;exitX=0;exitY=0.5;exitDx=0;exitDy=0;entryX=1;entryY=0.5;entryDx=0;entryDy=0;" parent="1" source="3aatrs0VqNNqFJPfwL0Z-2" target="C-pPuzgPL1uRPU92LG2Y-21" edge="1">
          <mxGeometry relative="1" as="geometry">
            <mxPoint x="710" y="355" as="sourcePoint" />
            <mxPoint x="630" y="335" as="targetPoint" />
          </mxGeometry>
        </mxCell>
        <mxCell id="C-pPuzgPL1uRPU92LG2Y-43" value="" style="endArrow=none;html=1;rounded=0;exitX=0.5;exitY=1;exitDx=0;exitDy=0;entryX=1;entryY=0;entryDx=0;entryDy=0;" parent="1" source="C-pPuzgPL1uRPU92LG2Y-29" target="C-pPuzgPL1uRPU92LG2Y-21" edge="1">
          <mxGeometry relative="1" as="geometry">
            <mxPoint x="720" y="365" as="sourcePoint" />
            <mxPoint x="620" y="280" as="targetPoint" />
          </mxGeometry>
        </mxCell>
        <mxCell id="C-pPuzgPL1uRPU92LG2Y-45" value="" style="endArrow=none;html=1;rounded=0;exitX=0.5;exitY=1;exitDx=0;exitDy=0;entryX=0.5;entryY=0;entryDx=0;entryDy=0;" parent="1" source="C-pPuzgPL1uRPU92LG2Y-30" target="C-pPuzgPL1uRPU92LG2Y-21" edge="1">
          <mxGeometry relative="1" as="geometry">
            <mxPoint x="720" y="270" as="sourcePoint" />
            <mxPoint x="630" y="295" as="targetPoint" />
          </mxGeometry>
        </mxCell>
        <mxCell id="C-pPuzgPL1uRPU92LG2Y-46" value="" style="endArrow=none;html=1;rounded=0;exitX=0;exitY=0;exitDx=0;exitDy=0;entryX=0.5;entryY=1;entryDx=0;entryDy=0;" parent="1" source="C-pPuzgPL1uRPU92LG2Y-21" target="C-pPuzgPL1uRPU92LG2Y-31" edge="1">
          <mxGeometry relative="1" as="geometry">
            <mxPoint x="730" y="280" as="sourcePoint" />
            <mxPoint x="640" y="305" as="targetPoint" />
          </mxGeometry>
        </mxCell>
        <mxCell id="C-pPuzgPL1uRPU92LG2Y-60" value="회원" style="shape=table;startSize=30;container=1;collapsible=1;childLayout=tableLayout;fixedRows=1;rowLines=0;fontStyle=1;align=center;resizeLast=1;html=1;" parent="1" vertex="1">
          <mxGeometry x="477" y="495" width="186" height="330" as="geometry">
            <mxRectangle x="324" y="480" width="60" height="30" as="alternateBounds" />
          </mxGeometry>
        </mxCell>
        <mxCell id="C-pPuzgPL1uRPU92LG2Y-61" value="" style="shape=tableRow;horizontal=0;startSize=0;swimlaneHead=0;swimlaneBody=0;fillColor=none;collapsible=0;dropTarget=0;points=[[0,0.5],[1,0.5]];portConstraint=eastwest;top=0;left=0;right=0;bottom=1;" parent="C-pPuzgPL1uRPU92LG2Y-60" vertex="1">
          <mxGeometry y="30" width="186" height="30" as="geometry" />
        </mxCell>
        <mxCell id="C-pPuzgPL1uRPU92LG2Y-62" value="PK" style="shape=partialRectangle;connectable=0;fillColor=none;top=0;left=0;bottom=0;right=0;fontStyle=1;overflow=hidden;whiteSpace=wrap;html=1;" parent="C-pPuzgPL1uRPU92LG2Y-61" vertex="1">
          <mxGeometry width="36" height="30" as="geometry">
            <mxRectangle width="36" height="30" as="alternateBounds" />
          </mxGeometry>
        </mxCell>
        <mxCell id="C-pPuzgPL1uRPU92LG2Y-63" value="회원번호" style="shape=partialRectangle;connectable=0;fillColor=none;top=0;left=0;bottom=0;right=0;align=left;spacingLeft=6;fontStyle=5;overflow=hidden;whiteSpace=wrap;html=1;" parent="C-pPuzgPL1uRPU92LG2Y-61" vertex="1">
          <mxGeometry x="36" width="150" height="30" as="geometry">
            <mxRectangle width="150" height="30" as="alternateBounds" />
          </mxGeometry>
        </mxCell>
        <mxCell id="C-pPuzgPL1uRPU92LG2Y-64" value="" style="shape=tableRow;horizontal=0;startSize=0;swimlaneHead=0;swimlaneBody=0;fillColor=none;collapsible=0;dropTarget=0;points=[[0,0.5],[1,0.5]];portConstraint=eastwest;top=0;left=0;right=0;bottom=0;" parent="C-pPuzgPL1uRPU92LG2Y-60" vertex="1">
          <mxGeometry y="60" width="186" height="30" as="geometry" />
        </mxCell>
        <mxCell id="C-pPuzgPL1uRPU92LG2Y-65" value="" style="shape=partialRectangle;connectable=0;fillColor=none;top=0;left=0;bottom=0;right=0;editable=1;overflow=hidden;whiteSpace=wrap;html=1;" parent="C-pPuzgPL1uRPU92LG2Y-64" vertex="1">
          <mxGeometry width="36" height="30" as="geometry">
            <mxRectangle width="36" height="30" as="alternateBounds" />
          </mxGeometry>
        </mxCell>
        <mxCell id="C-pPuzgPL1uRPU92LG2Y-66" value="이름&lt;span style=&quot;white-space: pre;&quot;&gt;&#x9;&lt;/span&gt;" style="shape=partialRectangle;connectable=0;fillColor=none;top=0;left=0;bottom=0;right=0;align=left;spacingLeft=6;overflow=hidden;whiteSpace=wrap;html=1;" parent="C-pPuzgPL1uRPU92LG2Y-64" vertex="1">
          <mxGeometry x="36" width="150" height="30" as="geometry">
            <mxRectangle width="150" height="30" as="alternateBounds" />
          </mxGeometry>
        </mxCell>
        <mxCell id="C-pPuzgPL1uRPU92LG2Y-67" value="" style="shape=tableRow;horizontal=0;startSize=0;swimlaneHead=0;swimlaneBody=0;fillColor=none;collapsible=0;dropTarget=0;points=[[0,0.5],[1,0.5]];portConstraint=eastwest;top=0;left=0;right=0;bottom=0;" parent="C-pPuzgPL1uRPU92LG2Y-60" vertex="1">
          <mxGeometry y="90" width="186" height="30" as="geometry" />
        </mxCell>
        <mxCell id="C-pPuzgPL1uRPU92LG2Y-68" value="" style="shape=partialRectangle;connectable=0;fillColor=none;top=0;left=0;bottom=0;right=0;editable=1;overflow=hidden;whiteSpace=wrap;html=1;" parent="C-pPuzgPL1uRPU92LG2Y-67" vertex="1">
          <mxGeometry width="36" height="30" as="geometry">
            <mxRectangle width="36" height="30" as="alternateBounds" />
          </mxGeometry>
        </mxCell>
        <mxCell id="C-pPuzgPL1uRPU92LG2Y-69" value="아이디" style="shape=partialRectangle;connectable=0;fillColor=none;top=0;left=0;bottom=0;right=0;align=left;spacingLeft=6;overflow=hidden;whiteSpace=wrap;html=1;" parent="C-pPuzgPL1uRPU92LG2Y-67" vertex="1">
          <mxGeometry x="36" width="150" height="30" as="geometry">
            <mxRectangle width="150" height="30" as="alternateBounds" />
          </mxGeometry>
        </mxCell>
        <mxCell id="C-pPuzgPL1uRPU92LG2Y-70" value="" style="shape=tableRow;horizontal=0;startSize=0;swimlaneHead=0;swimlaneBody=0;fillColor=none;collapsible=0;dropTarget=0;points=[[0,0.5],[1,0.5]];portConstraint=eastwest;top=0;left=0;right=0;bottom=0;" parent="C-pPuzgPL1uRPU92LG2Y-60" vertex="1">
          <mxGeometry y="120" width="186" height="30" as="geometry" />
        </mxCell>
        <mxCell id="C-pPuzgPL1uRPU92LG2Y-71" value="" style="shape=partialRectangle;connectable=0;fillColor=none;top=0;left=0;bottom=0;right=0;editable=1;overflow=hidden;whiteSpace=wrap;html=1;" parent="C-pPuzgPL1uRPU92LG2Y-70" vertex="1">
          <mxGeometry width="36" height="30" as="geometry">
            <mxRectangle width="36" height="30" as="alternateBounds" />
          </mxGeometry>
        </mxCell>
        <mxCell id="C-pPuzgPL1uRPU92LG2Y-72" value="비밀번호" style="shape=partialRectangle;connectable=0;fillColor=none;top=0;left=0;bottom=0;right=0;align=left;spacingLeft=6;overflow=hidden;whiteSpace=wrap;html=1;" parent="C-pPuzgPL1uRPU92LG2Y-70" vertex="1">
          <mxGeometry x="36" width="150" height="30" as="geometry">
            <mxRectangle width="150" height="30" as="alternateBounds" />
          </mxGeometry>
        </mxCell>
        <mxCell id="C-pPuzgPL1uRPU92LG2Y-54" value="" style="shape=tableRow;horizontal=0;startSize=0;swimlaneHead=0;swimlaneBody=0;fillColor=none;collapsible=0;dropTarget=0;points=[[0,0.5],[1,0.5]];portConstraint=eastwest;top=0;left=0;right=0;bottom=0;" parent="C-pPuzgPL1uRPU92LG2Y-60" vertex="1">
          <mxGeometry y="150" width="186" height="30" as="geometry" />
        </mxCell>
        <mxCell id="C-pPuzgPL1uRPU92LG2Y-55" value="" style="shape=partialRectangle;connectable=0;fillColor=none;top=0;left=0;bottom=0;right=0;editable=1;overflow=hidden;whiteSpace=wrap;html=1;" parent="C-pPuzgPL1uRPU92LG2Y-54" vertex="1">
          <mxGeometry width="36" height="30" as="geometry">
            <mxRectangle width="36" height="30" as="alternateBounds" />
          </mxGeometry>
        </mxCell>
        <mxCell id="C-pPuzgPL1uRPU92LG2Y-56" value="메일" style="shape=partialRectangle;connectable=0;fillColor=none;top=0;left=0;bottom=0;right=0;align=left;spacingLeft=6;overflow=hidden;whiteSpace=wrap;html=1;" parent="C-pPuzgPL1uRPU92LG2Y-54" vertex="1">
          <mxGeometry x="36" width="150" height="30" as="geometry">
            <mxRectangle width="150" height="30" as="alternateBounds" />
          </mxGeometry>
        </mxCell>
        <mxCell id="C-pPuzgPL1uRPU92LG2Y-116" value="" style="shape=tableRow;horizontal=0;startSize=0;swimlaneHead=0;swimlaneBody=0;fillColor=none;collapsible=0;dropTarget=0;points=[[0,0.5],[1,0.5]];portConstraint=eastwest;top=0;left=0;right=0;bottom=0;" parent="C-pPuzgPL1uRPU92LG2Y-60" vertex="1">
          <mxGeometry y="180" width="186" height="30" as="geometry" />
        </mxCell>
        <mxCell id="C-pPuzgPL1uRPU92LG2Y-117" value="" style="shape=partialRectangle;connectable=0;fillColor=none;top=0;left=0;bottom=0;right=0;editable=1;overflow=hidden;whiteSpace=wrap;html=1;" parent="C-pPuzgPL1uRPU92LG2Y-116" vertex="1">
          <mxGeometry width="36" height="30" as="geometry">
            <mxRectangle width="36" height="30" as="alternateBounds" />
          </mxGeometry>
        </mxCell>
        <mxCell id="C-pPuzgPL1uRPU92LG2Y-118" value="전화번호" style="shape=partialRectangle;connectable=0;fillColor=none;top=0;left=0;bottom=0;right=0;align=left;spacingLeft=6;overflow=hidden;whiteSpace=wrap;html=1;" parent="C-pPuzgPL1uRPU92LG2Y-116" vertex="1">
          <mxGeometry x="36" width="150" height="30" as="geometry">
            <mxRectangle width="150" height="30" as="alternateBounds" />
          </mxGeometry>
        </mxCell>
        <mxCell id="C-pPuzgPL1uRPU92LG2Y-131" value="" style="shape=tableRow;horizontal=0;startSize=0;swimlaneHead=0;swimlaneBody=0;fillColor=none;collapsible=0;dropTarget=0;points=[[0,0.5],[1,0.5]];portConstraint=eastwest;top=0;left=0;right=0;bottom=0;" parent="C-pPuzgPL1uRPU92LG2Y-60" vertex="1">
          <mxGeometry y="210" width="186" height="30" as="geometry" />
        </mxCell>
        <mxCell id="C-pPuzgPL1uRPU92LG2Y-132" value="" style="shape=partialRectangle;connectable=0;fillColor=none;top=0;left=0;bottom=0;right=0;editable=1;overflow=hidden;whiteSpace=wrap;html=1;" parent="C-pPuzgPL1uRPU92LG2Y-131" vertex="1">
          <mxGeometry width="36" height="30" as="geometry">
            <mxRectangle width="36" height="30" as="alternateBounds" />
          </mxGeometry>
        </mxCell>
        <mxCell id="C-pPuzgPL1uRPU92LG2Y-133" value="가입일" style="shape=partialRectangle;connectable=0;fillColor=none;top=0;left=0;bottom=0;right=0;align=left;spacingLeft=6;overflow=hidden;whiteSpace=wrap;html=1;" parent="C-pPuzgPL1uRPU92LG2Y-131" vertex="1">
          <mxGeometry x="36" width="150" height="30" as="geometry">
            <mxRectangle width="150" height="30" as="alternateBounds" />
          </mxGeometry>
        </mxCell>
        <mxCell id="C-pPuzgPL1uRPU92LG2Y-134" value="" style="shape=tableRow;horizontal=0;startSize=0;swimlaneHead=0;swimlaneBody=0;fillColor=none;collapsible=0;dropTarget=0;points=[[0,0.5],[1,0.5]];portConstraint=eastwest;top=0;left=0;right=0;bottom=0;" parent="C-pPuzgPL1uRPU92LG2Y-60" vertex="1">
          <mxGeometry y="240" width="186" height="30" as="geometry" />
        </mxCell>
        <mxCell id="C-pPuzgPL1uRPU92LG2Y-135" value="" style="shape=partialRectangle;connectable=0;fillColor=none;top=0;left=0;bottom=0;right=0;editable=1;overflow=hidden;whiteSpace=wrap;html=1;" parent="C-pPuzgPL1uRPU92LG2Y-134" vertex="1">
          <mxGeometry width="36" height="30" as="geometry">
            <mxRectangle width="36" height="30" as="alternateBounds" />
          </mxGeometry>
        </mxCell>
        <mxCell id="C-pPuzgPL1uRPU92LG2Y-136" value="성별" style="shape=partialRectangle;connectable=0;fillColor=none;top=0;left=0;bottom=0;right=0;align=left;spacingLeft=6;overflow=hidden;whiteSpace=wrap;html=1;" parent="C-pPuzgPL1uRPU92LG2Y-134" vertex="1">
          <mxGeometry x="36" width="150" height="30" as="geometry">
            <mxRectangle width="150" height="30" as="alternateBounds" />
          </mxGeometry>
        </mxCell>
        <mxCell id="C-pPuzgPL1uRPU92LG2Y-169" value="" style="shape=tableRow;horizontal=0;startSize=0;swimlaneHead=0;swimlaneBody=0;fillColor=none;collapsible=0;dropTarget=0;points=[[0,0.5],[1,0.5]];portConstraint=eastwest;top=0;left=0;right=0;bottom=0;" parent="C-pPuzgPL1uRPU92LG2Y-60" vertex="1">
          <mxGeometry y="270" width="186" height="30" as="geometry" />
        </mxCell>
        <mxCell id="C-pPuzgPL1uRPU92LG2Y-170" value="" style="shape=partialRectangle;connectable=0;fillColor=none;top=0;left=0;bottom=0;right=0;editable=1;overflow=hidden;whiteSpace=wrap;html=1;" parent="C-pPuzgPL1uRPU92LG2Y-169" vertex="1">
          <mxGeometry width="36" height="30" as="geometry">
            <mxRectangle width="36" height="30" as="alternateBounds" />
          </mxGeometry>
        </mxCell>
        <mxCell id="C-pPuzgPL1uRPU92LG2Y-171" value="아바타" style="shape=partialRectangle;connectable=0;fillColor=none;top=0;left=0;bottom=0;right=0;align=left;spacingLeft=6;overflow=hidden;whiteSpace=wrap;html=1;" parent="C-pPuzgPL1uRPU92LG2Y-169" vertex="1">
          <mxGeometry x="36" width="150" height="30" as="geometry">
            <mxRectangle width="150" height="30" as="alternateBounds" />
          </mxGeometry>
        </mxCell>
        <mxCell id="C-pPuzgPL1uRPU92LG2Y-137" value="" style="shape=tableRow;horizontal=0;startSize=0;swimlaneHead=0;swimlaneBody=0;fillColor=none;collapsible=0;dropTarget=0;points=[[0,0.5],[1,0.5]];portConstraint=eastwest;top=0;left=0;right=0;bottom=0;" parent="C-pPuzgPL1uRPU92LG2Y-60" vertex="1">
          <mxGeometry y="300" width="186" height="30" as="geometry" />
        </mxCell>
        <mxCell id="C-pPuzgPL1uRPU92LG2Y-138" value="" style="shape=partialRectangle;connectable=0;fillColor=none;top=0;left=0;bottom=0;right=0;editable=1;overflow=hidden;whiteSpace=wrap;html=1;" parent="C-pPuzgPL1uRPU92LG2Y-137" vertex="1">
          <mxGeometry width="36" height="30" as="geometry">
            <mxRectangle width="36" height="30" as="alternateBounds" />
          </mxGeometry>
        </mxCell>
        <mxCell id="C-pPuzgPL1uRPU92LG2Y-139" value="활동여부" style="shape=partialRectangle;connectable=0;fillColor=none;top=0;left=0;bottom=0;right=0;align=left;spacingLeft=6;overflow=hidden;whiteSpace=wrap;html=1;" parent="C-pPuzgPL1uRPU92LG2Y-137" vertex="1">
          <mxGeometry x="36" width="150" height="30" as="geometry">
            <mxRectangle width="150" height="30" as="alternateBounds" />
          </mxGeometry>
        </mxCell>
        <mxCell id="C-pPuzgPL1uRPU92LG2Y-77" value="" style="shape=tableRow;horizontal=0;startSize=0;swimlaneHead=0;swimlaneBody=0;fillColor=none;collapsible=0;dropTarget=0;points=[[0,0.5],[1,0.5]];portConstraint=eastwest;top=0;left=0;right=0;bottom=0;" parent="1" vertex="1">
          <mxGeometry x="321" y="630" width="186" height="30" as="geometry" />
        </mxCell>
        <mxCell id="C-pPuzgPL1uRPU92LG2Y-78" value="" style="shape=partialRectangle;connectable=0;fillColor=none;top=0;left=0;bottom=0;right=0;editable=1;overflow=hidden;whiteSpace=wrap;html=1;" parent="C-pPuzgPL1uRPU92LG2Y-77" vertex="1">
          <mxGeometry width="30" height="30" as="geometry">
            <mxRectangle width="30" height="30" as="alternateBounds" />
          </mxGeometry>
        </mxCell>
        <mxCell id="C-pPuzgPL1uRPU92LG2Y-140" value="게시판" style="shape=table;startSize=30;container=1;collapsible=1;childLayout=tableLayout;fixedRows=1;rowLines=0;fontStyle=1;align=center;resizeLast=1;html=1;" parent="1" vertex="1">
          <mxGeometry x="60" y="520" width="180" height="240" as="geometry" />
        </mxCell>
        <mxCell id="C-pPuzgPL1uRPU92LG2Y-141" value="" style="shape=tableRow;horizontal=0;startSize=0;swimlaneHead=0;swimlaneBody=0;fillColor=none;collapsible=0;dropTarget=0;points=[[0,0.5],[1,0.5]];portConstraint=eastwest;top=0;left=0;right=0;bottom=1;" parent="C-pPuzgPL1uRPU92LG2Y-140" vertex="1">
          <mxGeometry y="30" width="180" height="30" as="geometry" />
        </mxCell>
        <mxCell id="C-pPuzgPL1uRPU92LG2Y-142" value="PK" style="shape=partialRectangle;connectable=0;fillColor=none;top=0;left=0;bottom=0;right=0;fontStyle=1;overflow=hidden;whiteSpace=wrap;html=1;" parent="C-pPuzgPL1uRPU92LG2Y-141" vertex="1">
          <mxGeometry width="30" height="30" as="geometry">
            <mxRectangle width="30" height="30" as="alternateBounds" />
          </mxGeometry>
        </mxCell>
        <mxCell id="C-pPuzgPL1uRPU92LG2Y-143" value="글번호" style="shape=partialRectangle;connectable=0;fillColor=none;top=0;left=0;bottom=0;right=0;align=left;spacingLeft=6;fontStyle=5;overflow=hidden;whiteSpace=wrap;html=1;" parent="C-pPuzgPL1uRPU92LG2Y-141" vertex="1">
          <mxGeometry x="30" width="150" height="30" as="geometry">
            <mxRectangle width="150" height="30" as="alternateBounds" />
          </mxGeometry>
        </mxCell>
        <mxCell id="C-pPuzgPL1uRPU92LG2Y-144" value="" style="shape=tableRow;horizontal=0;startSize=0;swimlaneHead=0;swimlaneBody=0;fillColor=none;collapsible=0;dropTarget=0;points=[[0,0.5],[1,0.5]];portConstraint=eastwest;top=0;left=0;right=0;bottom=0;" parent="C-pPuzgPL1uRPU92LG2Y-140" vertex="1">
          <mxGeometry y="60" width="180" height="30" as="geometry" />
        </mxCell>
        <mxCell id="C-pPuzgPL1uRPU92LG2Y-145" value="" style="shape=partialRectangle;connectable=0;fillColor=none;top=0;left=0;bottom=0;right=0;editable=1;overflow=hidden;whiteSpace=wrap;html=1;" parent="C-pPuzgPL1uRPU92LG2Y-144" vertex="1">
          <mxGeometry width="30" height="30" as="geometry">
            <mxRectangle width="30" height="30" as="alternateBounds" />
          </mxGeometry>
        </mxCell>
        <mxCell id="C-pPuzgPL1uRPU92LG2Y-146" value="제목" style="shape=partialRectangle;connectable=0;fillColor=none;top=0;left=0;bottom=0;right=0;align=left;spacingLeft=6;overflow=hidden;whiteSpace=wrap;html=1;" parent="C-pPuzgPL1uRPU92LG2Y-144" vertex="1">
          <mxGeometry x="30" width="150" height="30" as="geometry">
            <mxRectangle width="150" height="30" as="alternateBounds" />
          </mxGeometry>
        </mxCell>
        <mxCell id="C-pPuzgPL1uRPU92LG2Y-147" value="" style="shape=tableRow;horizontal=0;startSize=0;swimlaneHead=0;swimlaneBody=0;fillColor=none;collapsible=0;dropTarget=0;points=[[0,0.5],[1,0.5]];portConstraint=eastwest;top=0;left=0;right=0;bottom=0;" parent="C-pPuzgPL1uRPU92LG2Y-140" vertex="1">
          <mxGeometry y="90" width="180" height="30" as="geometry" />
        </mxCell>
        <mxCell id="C-pPuzgPL1uRPU92LG2Y-148" value="" style="shape=partialRectangle;connectable=0;fillColor=none;top=0;left=0;bottom=0;right=0;editable=1;overflow=hidden;whiteSpace=wrap;html=1;" parent="C-pPuzgPL1uRPU92LG2Y-147" vertex="1">
          <mxGeometry width="30" height="30" as="geometry">
            <mxRectangle width="30" height="30" as="alternateBounds" />
          </mxGeometry>
        </mxCell>
        <mxCell id="C-pPuzgPL1uRPU92LG2Y-149" value="글내용" style="shape=partialRectangle;connectable=0;fillColor=none;top=0;left=0;bottom=0;right=0;align=left;spacingLeft=6;overflow=hidden;whiteSpace=wrap;html=1;" parent="C-pPuzgPL1uRPU92LG2Y-147" vertex="1">
          <mxGeometry x="30" width="150" height="30" as="geometry">
            <mxRectangle width="150" height="30" as="alternateBounds" />
          </mxGeometry>
        </mxCell>
        <mxCell id="C-pPuzgPL1uRPU92LG2Y-150" value="" style="shape=tableRow;horizontal=0;startSize=0;swimlaneHead=0;swimlaneBody=0;fillColor=none;collapsible=0;dropTarget=0;points=[[0,0.5],[1,0.5]];portConstraint=eastwest;top=0;left=0;right=0;bottom=0;" parent="C-pPuzgPL1uRPU92LG2Y-140" vertex="1">
          <mxGeometry y="120" width="180" height="30" as="geometry" />
        </mxCell>
        <mxCell id="C-pPuzgPL1uRPU92LG2Y-151" value="" style="shape=partialRectangle;connectable=0;fillColor=none;top=0;left=0;bottom=0;right=0;editable=1;overflow=hidden;whiteSpace=wrap;html=1;" parent="C-pPuzgPL1uRPU92LG2Y-150" vertex="1">
          <mxGeometry width="30" height="30" as="geometry">
            <mxRectangle width="30" height="30" as="alternateBounds" />
          </mxGeometry>
        </mxCell>
        <mxCell id="C-pPuzgPL1uRPU92LG2Y-152" value="작성일" style="shape=partialRectangle;connectable=0;fillColor=none;top=0;left=0;bottom=0;right=0;align=left;spacingLeft=6;overflow=hidden;whiteSpace=wrap;html=1;" parent="C-pPuzgPL1uRPU92LG2Y-150" vertex="1">
          <mxGeometry x="30" width="150" height="30" as="geometry">
            <mxRectangle width="150" height="30" as="alternateBounds" />
          </mxGeometry>
        </mxCell>
        <mxCell id="C-pPuzgPL1uRPU92LG2Y-163" value="" style="shape=tableRow;horizontal=0;startSize=0;swimlaneHead=0;swimlaneBody=0;fillColor=none;collapsible=0;dropTarget=0;points=[[0,0.5],[1,0.5]];portConstraint=eastwest;top=0;left=0;right=0;bottom=0;" parent="C-pPuzgPL1uRPU92LG2Y-140" vertex="1">
          <mxGeometry y="150" width="180" height="30" as="geometry" />
        </mxCell>
        <mxCell id="C-pPuzgPL1uRPU92LG2Y-164" value="" style="shape=partialRectangle;connectable=0;fillColor=none;top=0;left=0;bottom=0;right=0;editable=1;overflow=hidden;whiteSpace=wrap;html=1;" parent="C-pPuzgPL1uRPU92LG2Y-163" vertex="1">
          <mxGeometry width="30" height="30" as="geometry">
            <mxRectangle width="30" height="30" as="alternateBounds" />
          </mxGeometry>
        </mxCell>
        <mxCell id="C-pPuzgPL1uRPU92LG2Y-165" value="조회수" style="shape=partialRectangle;connectable=0;fillColor=none;top=0;left=0;bottom=0;right=0;align=left;spacingLeft=6;overflow=hidden;whiteSpace=wrap;html=1;" parent="C-pPuzgPL1uRPU92LG2Y-163" vertex="1">
          <mxGeometry x="30" width="150" height="30" as="geometry">
            <mxRectangle width="150" height="30" as="alternateBounds" />
          </mxGeometry>
        </mxCell>
        <mxCell id="C-pPuzgPL1uRPU92LG2Y-157" value="" style="shape=tableRow;horizontal=0;startSize=0;swimlaneHead=0;swimlaneBody=0;fillColor=none;collapsible=0;dropTarget=0;points=[[0,0.5],[1,0.5]];portConstraint=eastwest;top=0;left=0;right=0;bottom=0;" parent="C-pPuzgPL1uRPU92LG2Y-140" vertex="1">
          <mxGeometry y="180" width="180" height="30" as="geometry" />
        </mxCell>
        <mxCell id="C-pPuzgPL1uRPU92LG2Y-158" value="" style="shape=partialRectangle;connectable=0;fillColor=none;top=0;left=0;bottom=0;right=0;editable=1;overflow=hidden;whiteSpace=wrap;html=1;" parent="C-pPuzgPL1uRPU92LG2Y-157" vertex="1">
          <mxGeometry width="30" height="30" as="geometry">
            <mxRectangle width="30" height="30" as="alternateBounds" />
          </mxGeometry>
        </mxCell>
        <mxCell id="C-pPuzgPL1uRPU92LG2Y-159" value="노출여부" style="shape=partialRectangle;connectable=0;fillColor=none;top=0;left=0;bottom=0;right=0;align=left;spacingLeft=6;overflow=hidden;whiteSpace=wrap;html=1;" parent="C-pPuzgPL1uRPU92LG2Y-157" vertex="1">
          <mxGeometry x="30" width="150" height="30" as="geometry">
            <mxRectangle width="150" height="30" as="alternateBounds" />
          </mxGeometry>
        </mxCell>
        <mxCell id="C-pPuzgPL1uRPU92LG2Y-154" value="" style="shape=tableRow;horizontal=0;startSize=0;swimlaneHead=0;swimlaneBody=0;fillColor=none;collapsible=0;dropTarget=0;points=[[0,0.5],[1,0.5]];portConstraint=eastwest;top=0;left=0;right=0;bottom=0;" parent="C-pPuzgPL1uRPU92LG2Y-140" vertex="1">
          <mxGeometry y="210" width="180" height="30" as="geometry" />
        </mxCell>
        <mxCell id="C-pPuzgPL1uRPU92LG2Y-155" value="FK" style="shape=partialRectangle;connectable=0;fillColor=none;top=0;left=0;bottom=0;right=0;fontStyle=0;overflow=hidden;whiteSpace=wrap;html=1;" parent="C-pPuzgPL1uRPU92LG2Y-154" vertex="1">
          <mxGeometry width="30" height="30" as="geometry">
            <mxRectangle width="30" height="30" as="alternateBounds" />
          </mxGeometry>
        </mxCell>
        <mxCell id="C-pPuzgPL1uRPU92LG2Y-156" value="작성자" style="shape=partialRectangle;connectable=0;fillColor=none;top=0;left=0;bottom=0;right=0;align=left;spacingLeft=6;fontStyle=0;overflow=hidden;whiteSpace=wrap;html=1;" parent="C-pPuzgPL1uRPU92LG2Y-154" vertex="1">
          <mxGeometry x="30" width="150" height="30" as="geometry">
            <mxRectangle width="150" height="30" as="alternateBounds" />
          </mxGeometry>
        </mxCell>
        <mxCell id="C-pPuzgPL1uRPU92LG2Y-166" value="" style="edgeStyle=orthogonalEdgeStyle;fontSize=12;html=1;endArrow=ERzeroToMany;startArrow=ERmandOne;rounded=0;exitX=0;exitY=0.5;exitDx=0;exitDy=0;entryX=1;entryY=0.5;entryDx=0;entryDy=0;" parent="1" source="C-pPuzgPL1uRPU92LG2Y-61" target="C-pPuzgPL1uRPU92LG2Y-154" edge="1">
          <mxGeometry width="100" height="100" relative="1" as="geometry">
            <mxPoint x="360" y="550" as="sourcePoint" />
            <mxPoint x="460" y="450" as="targetPoint" />
          </mxGeometry>
        </mxCell>
        <mxCell id="C-pPuzgPL1uRPU92LG2Y-168" value="" style="endArrow=none;html=1;rounded=0;exitX=0.5;exitY=1;exitDx=0;exitDy=0;entryX=0.5;entryY=0;entryDx=0;entryDy=0;" parent="1" source="C-pPuzgPL1uRPU92LG2Y-28" target="C-pPuzgPL1uRPU92LG2Y-21" edge="1">
          <mxGeometry relative="1" as="geometry">
            <mxPoint x="690.0000000000002" y="120" as="sourcePoint" />
            <mxPoint x="590" y="280" as="targetPoint" />
          </mxGeometry>
        </mxCell>
        <mxCell id="3aatrs0VqNNqFJPfwL0Z-2" value="아바타" style="whiteSpace=wrap;html=1;align=center;" vertex="1" parent="1">
          <mxGeometry x="760" y="285" width="100" height="40" as="geometry" />
        </mxCell>
        <mxCell id="3aatrs0VqNNqFJPfwL0Z-3" value="저장경로" style="ellipse;whiteSpace=wrap;html=1;align=center;" vertex="1" parent="1">
          <mxGeometry x="930" y="310" width="100" height="40" as="geometry" />
        </mxCell>
        <mxCell id="3aatrs0VqNNqFJPfwL0Z-4" value="저장이름" style="ellipse;whiteSpace=wrap;html=1;align=center;" vertex="1" parent="1">
          <mxGeometry x="900" y="235" width="100" height="40" as="geometry" />
        </mxCell>
        <mxCell id="3aatrs0VqNNqFJPfwL0Z-5" value="아바타이름" style="ellipse;whiteSpace=wrap;html=1;align=center;" vertex="1" parent="1">
          <mxGeometry x="880" y="175" width="100" height="40" as="geometry" />
        </mxCell>
        <mxCell id="3aatrs0VqNNqFJPfwL0Z-6" value="파일크기" style="ellipse;whiteSpace=wrap;html=1;align=center;" vertex="1" parent="1">
          <mxGeometry x="860" y="385" width="100" height="40" as="geometry" />
        </mxCell>
        <mxCell id="3aatrs0VqNNqFJPfwL0Z-7" value="아바타번호" style="ellipse;whiteSpace=wrap;html=1;align=center;" vertex="1" parent="1">
          <mxGeometry x="760" y="160" width="100" height="40" as="geometry" />
        </mxCell>
        <mxCell id="3aatrs0VqNNqFJPfwL0Z-8" value="노출여부" style="ellipse;whiteSpace=wrap;html=1;align=center;" vertex="1" parent="1">
          <mxGeometry x="763" y="405" width="100" height="40" as="geometry" />
        </mxCell>
        <mxCell id="3aatrs0VqNNqFJPfwL0Z-10" value="" style="endArrow=none;html=1;rounded=0;entryX=0.5;entryY=1;entryDx=0;entryDy=0;exitX=0.5;exitY=0;exitDx=0;exitDy=0;" edge="1" parent="1" source="3aatrs0VqNNqFJPfwL0Z-8" target="3aatrs0VqNNqFJPfwL0Z-2">
          <mxGeometry relative="1" as="geometry">
            <mxPoint x="670" y="380" as="sourcePoint" />
            <mxPoint x="830" y="380" as="targetPoint" />
          </mxGeometry>
        </mxCell>
        <mxCell id="3aatrs0VqNNqFJPfwL0Z-11" value="" style="endArrow=none;html=1;rounded=0;entryX=1;entryY=1;entryDx=0;entryDy=0;exitX=0.5;exitY=0;exitDx=0;exitDy=0;" edge="1" parent="1" source="3aatrs0VqNNqFJPfwL0Z-6" target="3aatrs0VqNNqFJPfwL0Z-2">
          <mxGeometry relative="1" as="geometry">
            <mxPoint x="800" y="410" as="sourcePoint" />
            <mxPoint x="820" y="335" as="targetPoint" />
          </mxGeometry>
        </mxCell>
        <mxCell id="3aatrs0VqNNqFJPfwL0Z-12" value="" style="endArrow=none;html=1;rounded=0;entryX=1;entryY=0.5;entryDx=0;entryDy=0;exitX=0;exitY=0.5;exitDx=0;exitDy=0;" edge="1" parent="1" source="3aatrs0VqNNqFJPfwL0Z-3" target="3aatrs0VqNNqFJPfwL0Z-2">
          <mxGeometry relative="1" as="geometry">
            <mxPoint x="810" y="420" as="sourcePoint" />
            <mxPoint x="830" y="345" as="targetPoint" />
          </mxGeometry>
        </mxCell>
        <mxCell id="3aatrs0VqNNqFJPfwL0Z-13" value="" style="endArrow=none;html=1;rounded=0;entryX=1;entryY=0;entryDx=0;entryDy=0;exitX=0.5;exitY=1;exitDx=0;exitDy=0;" edge="1" parent="1" source="3aatrs0VqNNqFJPfwL0Z-4" target="3aatrs0VqNNqFJPfwL0Z-2">
          <mxGeometry relative="1" as="geometry">
            <mxPoint x="820" y="430" as="sourcePoint" />
            <mxPoint x="840" y="355" as="targetPoint" />
          </mxGeometry>
        </mxCell>
        <mxCell id="3aatrs0VqNNqFJPfwL0Z-14" value="" style="endArrow=none;html=1;rounded=0;entryX=0.75;entryY=0;entryDx=0;entryDy=0;exitX=0.5;exitY=1;exitDx=0;exitDy=0;" edge="1" parent="1" source="3aatrs0VqNNqFJPfwL0Z-5" target="3aatrs0VqNNqFJPfwL0Z-2">
          <mxGeometry relative="1" as="geometry">
            <mxPoint x="830" y="440" as="sourcePoint" />
            <mxPoint x="850" y="365" as="targetPoint" />
          </mxGeometry>
        </mxCell>
        <mxCell id="3aatrs0VqNNqFJPfwL0Z-15" value="" style="endArrow=none;html=1;rounded=0;entryX=0.5;entryY=1;entryDx=0;entryDy=0;exitX=0.5;exitY=0;exitDx=0;exitDy=0;" edge="1" parent="1" source="3aatrs0VqNNqFJPfwL0Z-2" target="3aatrs0VqNNqFJPfwL0Z-7">
          <mxGeometry relative="1" as="geometry">
            <mxPoint x="840" y="450" as="sourcePoint" />
            <mxPoint x="860" y="375" as="targetPoint" />
          </mxGeometry>
        </mxCell>
        <mxCell id="3aatrs0VqNNqFJPfwL0Z-17" value="아바타" style="shape=table;startSize=30;container=1;collapsible=1;childLayout=tableLayout;fixedRows=1;rowLines=0;fontStyle=1;align=center;resizeLast=1;html=1;" vertex="1" parent="1">
          <mxGeometry x="794" y="495" width="186" height="205" as="geometry">
            <mxRectangle x="324" y="480" width="60" height="30" as="alternateBounds" />
          </mxGeometry>
        </mxCell>
        <mxCell id="3aatrs0VqNNqFJPfwL0Z-18" value="" style="shape=tableRow;horizontal=0;startSize=0;swimlaneHead=0;swimlaneBody=0;fillColor=none;collapsible=0;dropTarget=0;points=[[0,0.5],[1,0.5]];portConstraint=eastwest;top=0;left=0;right=0;bottom=1;" vertex="1" parent="3aatrs0VqNNqFJPfwL0Z-17">
          <mxGeometry y="30" width="186" height="30" as="geometry" />
        </mxCell>
        <mxCell id="3aatrs0VqNNqFJPfwL0Z-19" value="PK" style="shape=partialRectangle;connectable=0;fillColor=none;top=0;left=0;bottom=0;right=0;fontStyle=1;overflow=hidden;whiteSpace=wrap;html=1;" vertex="1" parent="3aatrs0VqNNqFJPfwL0Z-18">
          <mxGeometry width="36" height="30" as="geometry">
            <mxRectangle width="36" height="30" as="alternateBounds" />
          </mxGeometry>
        </mxCell>
        <mxCell id="3aatrs0VqNNqFJPfwL0Z-20" value="아바타번호" style="shape=partialRectangle;connectable=0;fillColor=none;top=0;left=0;bottom=0;right=0;align=left;spacingLeft=6;fontStyle=5;overflow=hidden;whiteSpace=wrap;html=1;" vertex="1" parent="3aatrs0VqNNqFJPfwL0Z-18">
          <mxGeometry x="36" width="150" height="30" as="geometry">
            <mxRectangle width="150" height="30" as="alternateBounds" />
          </mxGeometry>
        </mxCell>
        <mxCell id="3aatrs0VqNNqFJPfwL0Z-21" value="" style="shape=tableRow;horizontal=0;startSize=0;swimlaneHead=0;swimlaneBody=0;fillColor=none;collapsible=0;dropTarget=0;points=[[0,0.5],[1,0.5]];portConstraint=eastwest;top=0;left=0;right=0;bottom=0;" vertex="1" parent="3aatrs0VqNNqFJPfwL0Z-17">
          <mxGeometry y="60" width="186" height="30" as="geometry" />
        </mxCell>
        <mxCell id="3aatrs0VqNNqFJPfwL0Z-22" value="" style="shape=partialRectangle;connectable=0;fillColor=none;top=0;left=0;bottom=0;right=0;editable=1;overflow=hidden;whiteSpace=wrap;html=1;" vertex="1" parent="3aatrs0VqNNqFJPfwL0Z-21">
          <mxGeometry width="36" height="30" as="geometry">
            <mxRectangle width="36" height="30" as="alternateBounds" />
          </mxGeometry>
        </mxCell>
        <mxCell id="3aatrs0VqNNqFJPfwL0Z-23" value="아바타이름" style="shape=partialRectangle;connectable=0;fillColor=none;top=0;left=0;bottom=0;right=0;align=left;spacingLeft=6;overflow=hidden;whiteSpace=wrap;html=1;" vertex="1" parent="3aatrs0VqNNqFJPfwL0Z-21">
          <mxGeometry x="36" width="150" height="30" as="geometry">
            <mxRectangle width="150" height="30" as="alternateBounds" />
          </mxGeometry>
        </mxCell>
        <mxCell id="3aatrs0VqNNqFJPfwL0Z-24" value="" style="shape=tableRow;horizontal=0;startSize=0;swimlaneHead=0;swimlaneBody=0;fillColor=none;collapsible=0;dropTarget=0;points=[[0,0.5],[1,0.5]];portConstraint=eastwest;top=0;left=0;right=0;bottom=0;" vertex="1" parent="3aatrs0VqNNqFJPfwL0Z-17">
          <mxGeometry y="90" width="186" height="30" as="geometry" />
        </mxCell>
        <mxCell id="3aatrs0VqNNqFJPfwL0Z-25" value="" style="shape=partialRectangle;connectable=0;fillColor=none;top=0;left=0;bottom=0;right=0;editable=1;overflow=hidden;whiteSpace=wrap;html=1;" vertex="1" parent="3aatrs0VqNNqFJPfwL0Z-24">
          <mxGeometry width="36" height="30" as="geometry">
            <mxRectangle width="36" height="30" as="alternateBounds" />
          </mxGeometry>
        </mxCell>
        <mxCell id="3aatrs0VqNNqFJPfwL0Z-26" value="저장이름" style="shape=partialRectangle;connectable=0;fillColor=none;top=0;left=0;bottom=0;right=0;align=left;spacingLeft=6;overflow=hidden;whiteSpace=wrap;html=1;" vertex="1" parent="3aatrs0VqNNqFJPfwL0Z-24">
          <mxGeometry x="36" width="150" height="30" as="geometry">
            <mxRectangle width="150" height="30" as="alternateBounds" />
          </mxGeometry>
        </mxCell>
        <mxCell id="3aatrs0VqNNqFJPfwL0Z-27" value="" style="shape=tableRow;horizontal=0;startSize=0;swimlaneHead=0;swimlaneBody=0;fillColor=none;collapsible=0;dropTarget=0;points=[[0,0.5],[1,0.5]];portConstraint=eastwest;top=0;left=0;right=0;bottom=0;" vertex="1" parent="3aatrs0VqNNqFJPfwL0Z-17">
          <mxGeometry y="120" width="186" height="30" as="geometry" />
        </mxCell>
        <mxCell id="3aatrs0VqNNqFJPfwL0Z-28" value="" style="shape=partialRectangle;connectable=0;fillColor=none;top=0;left=0;bottom=0;right=0;editable=1;overflow=hidden;whiteSpace=wrap;html=1;" vertex="1" parent="3aatrs0VqNNqFJPfwL0Z-27">
          <mxGeometry width="36" height="30" as="geometry">
            <mxRectangle width="36" height="30" as="alternateBounds" />
          </mxGeometry>
        </mxCell>
        <mxCell id="3aatrs0VqNNqFJPfwL0Z-29" value="저장경로" style="shape=partialRectangle;connectable=0;fillColor=none;top=0;left=0;bottom=0;right=0;align=left;spacingLeft=6;overflow=hidden;whiteSpace=wrap;html=1;" vertex="1" parent="3aatrs0VqNNqFJPfwL0Z-27">
          <mxGeometry x="36" width="150" height="30" as="geometry">
            <mxRectangle width="150" height="30" as="alternateBounds" />
          </mxGeometry>
        </mxCell>
        <mxCell id="3aatrs0VqNNqFJPfwL0Z-30" value="" style="shape=tableRow;horizontal=0;startSize=0;swimlaneHead=0;swimlaneBody=0;fillColor=none;collapsible=0;dropTarget=0;points=[[0,0.5],[1,0.5]];portConstraint=eastwest;top=0;left=0;right=0;bottom=0;" vertex="1" parent="3aatrs0VqNNqFJPfwL0Z-17">
          <mxGeometry y="150" width="186" height="25" as="geometry" />
        </mxCell>
        <mxCell id="3aatrs0VqNNqFJPfwL0Z-31" value="" style="shape=partialRectangle;connectable=0;fillColor=none;top=0;left=0;bottom=0;right=0;editable=1;overflow=hidden;whiteSpace=wrap;html=1;" vertex="1" parent="3aatrs0VqNNqFJPfwL0Z-30">
          <mxGeometry width="36" height="25" as="geometry">
            <mxRectangle width="36" height="25" as="alternateBounds" />
          </mxGeometry>
        </mxCell>
        <mxCell id="3aatrs0VqNNqFJPfwL0Z-32" value="파일크기" style="shape=partialRectangle;connectable=0;fillColor=none;top=0;left=0;bottom=0;right=0;align=left;spacingLeft=6;overflow=hidden;whiteSpace=wrap;html=1;" vertex="1" parent="3aatrs0VqNNqFJPfwL0Z-30">
          <mxGeometry x="36" width="150" height="25" as="geometry">
            <mxRectangle width="150" height="25" as="alternateBounds" />
          </mxGeometry>
        </mxCell>
        <mxCell id="3aatrs0VqNNqFJPfwL0Z-33" value="" style="shape=tableRow;horizontal=0;startSize=0;swimlaneHead=0;swimlaneBody=0;fillColor=none;collapsible=0;dropTarget=0;points=[[0,0.5],[1,0.5]];portConstraint=eastwest;top=0;left=0;right=0;bottom=0;" vertex="1" parent="3aatrs0VqNNqFJPfwL0Z-17">
          <mxGeometry y="175" width="186" height="30" as="geometry" />
        </mxCell>
        <mxCell id="3aatrs0VqNNqFJPfwL0Z-34" value="" style="shape=partialRectangle;connectable=0;fillColor=none;top=0;left=0;bottom=0;right=0;editable=1;overflow=hidden;whiteSpace=wrap;html=1;" vertex="1" parent="3aatrs0VqNNqFJPfwL0Z-33">
          <mxGeometry width="36" height="30" as="geometry">
            <mxRectangle width="36" height="30" as="alternateBounds" />
          </mxGeometry>
        </mxCell>
        <mxCell id="3aatrs0VqNNqFJPfwL0Z-35" value="노출여부" style="shape=partialRectangle;connectable=0;fillColor=none;top=0;left=0;bottom=0;right=0;align=left;spacingLeft=6;overflow=hidden;whiteSpace=wrap;html=1;" vertex="1" parent="3aatrs0VqNNqFJPfwL0Z-33">
          <mxGeometry x="36" width="150" height="30" as="geometry">
            <mxRectangle width="150" height="30" as="alternateBounds" />
          </mxGeometry>
        </mxCell>
        <mxCell id="3aatrs0VqNNqFJPfwL0Z-48" value="" style="edgeStyle=orthogonalEdgeStyle;fontSize=12;html=1;endArrow=ERmandOne;startArrow=ERmandOne;rounded=0;entryX=0;entryY=0.5;entryDx=0;entryDy=0;" edge="1" parent="1" source="C-pPuzgPL1uRPU92LG2Y-169" target="3aatrs0VqNNqFJPfwL0Z-18">
          <mxGeometry width="100" height="100" relative="1" as="geometry">
            <mxPoint x="570" y="540" as="sourcePoint" />
            <mxPoint x="670" y="440" as="targetPoint" />
          </mxGeometry>
        </mxCell>
        <mxCell id="3aatrs0VqNNqFJPfwL0Z-49" value="작성일" style="ellipse;whiteSpace=wrap;html=1;align=center;" vertex="1" parent="1">
          <mxGeometry x="680" y="375" width="100" height="40" as="geometry" />
        </mxCell>
        <mxCell id="3aatrs0VqNNqFJPfwL0Z-50" value="" style="endArrow=none;html=1;rounded=0;entryX=0.25;entryY=1;entryDx=0;entryDy=0;exitX=0.598;exitY=0.075;exitDx=0;exitDy=0;exitPerimeter=0;" edge="1" parent="1" source="3aatrs0VqNNqFJPfwL0Z-49" target="3aatrs0VqNNqFJPfwL0Z-2">
          <mxGeometry relative="1" as="geometry">
            <mxPoint x="823" y="415" as="sourcePoint" />
            <mxPoint x="820" y="335" as="targetPoint" />
          </mxGeometry>
        </mxCell>
      </root>
    </mxGraphModel>
  </diagram>
</mxfile>
